<svg width="59" height="59" viewBox="0 0 59 59" fill="none" xmlns="http://www.w3.org/2000/svg">
<path d="M29.4592 0.982437C36.2256 0.975436 42.7736 3.37774 47.9301 7.75903C53.0866 12.1403 56.5147 18.2144 57.6005 24.8932C58.6863 31.572 57.3588 38.4191 53.8557 44.2083C50.3527 49.9974 44.9029 54.3502 38.4827 56.487C37.041 56.762 36.5264 55.8781 36.5264 55.116C36.5264 54.1849 36.5617 51.109 36.5617 47.3023C36.5617 44.6467 35.6464 42.9064 34.625 42.0265C40.9694 41.3194 47.632 38.9152 47.632 27.9746C47.632 24.8633 46.532 22.3255 44.7053 20.3338C44.996 19.611 45.9703 16.7197 44.4185 12.7912C44.3596 12.7755 41.9633 12.0763 36.5931 15.714C34.2687 15.0836 31.8715 14.7613 29.4631 14.7554C27.056 14.7617 24.6601 15.084 22.3369 15.714C16.8922 12.0291 14.4958 12.7952 14.4958 12.7952C12.948 16.7157 13.9223 19.611 14.2208 20.3338C12.2962 22.4084 11.2452 25.145 11.2863 27.9746C11.2863 38.8877 17.9371 41.3312 24.2619 42.0501C23.4487 42.7611 22.7141 44.0143 22.4548 45.8567C20.8324 46.5834 16.7036 47.8445 14.1658 43.4918C14.1658 43.4918 12.6613 40.7615 9.8053 40.5573C9.8053 40.5573 7.02006 40.5219 9.60888 42.2858C9.66388 42.3172 11.4945 43.2168 12.7673 46.4538C12.787 46.5167 14.484 51.9811 22.3605 50.2722C22.3762 52.6489 22.3998 54.4403 22.3998 55.116C22.3998 55.8741 21.8812 56.7502 20.4552 56.4909C14.0337 54.3568 8.58182 50.006 5.07626 44.2179C1.5707 38.4299 0.240518 31.5827 1.324 24.9032C2.40748 18.2236 5.83383 12.148 10.9892 7.76486C16.1447 3.38169 22.6923 0.977301 29.4592 0.982437Z" fill="white"/>
</svg>
