<svg width="73" height="73" viewBox="0 0 73 73" fill="none" xmlns="http://www.w3.org/2000/svg">
<path d="M57.2522 9.03906C58.8505 9.03906 60.3834 9.674 61.5136 10.8042C62.6438 11.9344 63.2787 13.4673 63.2787 15.0656V57.2514C63.2787 58.8497 62.6438 60.3826 61.5136 61.5128C60.3834 62.643 58.8505 63.2779 57.2522 63.2779H15.0664C13.468 63.2779 11.9352 62.643 10.805 61.5128C9.67476 60.3826 9.03983 58.8497 9.03983 57.2514V15.0656C9.03983 13.4673 9.67476 11.9344 10.805 10.8042C11.9352 9.674 13.468 9.03906 15.0664 9.03906H57.2522ZM55.7455 55.7448V39.7744C55.7455 37.1691 54.7106 34.6705 52.8684 32.8283C51.0261 30.9861 48.5275 29.9512 45.9223 29.9512C43.361 29.9512 40.3778 31.5181 38.9315 33.8684V30.5237H30.5244V55.7448H38.9315V40.8893C38.9315 38.5691 40.7997 36.6708 43.1199 36.6708C44.2388 36.6708 45.3118 37.1152 46.1029 37.9063C46.894 38.6975 47.3385 39.7705 47.3385 40.8893V55.7448H55.7455ZM20.7313 25.7929C22.0739 25.7929 23.3615 25.2595 24.3109 24.3101C25.2603 23.3608 25.7936 22.0732 25.7936 20.7306C25.7936 17.9282 23.5337 15.6381 20.7313 15.6381C19.3807 15.6381 18.0854 16.1746 17.1304 17.1297C16.1754 18.0847 15.6389 19.38 15.6389 20.7306C15.6389 23.5329 17.929 25.7929 20.7313 25.7929ZM24.9198 55.7448V30.5237H16.573V55.7448H24.9198Z" fill="white"/>
</svg>
