<svg width="64" height="64" viewBox="0 0 64 64" fill="none" xmlns="http://www.w3.org/2000/svg">
<rect x="1" y="1" width="62" height="62" rx="7" fill="#005BC1" stroke="white" stroke-width="2"/>
<path d="M16.6557 25.3453C16.6557 25.0719 16.7078 24.8147 16.8119 24.5739C16.9161 24.3265 17.0593 24.1149 17.2416 23.9391C17.4239 23.7568 17.6355 23.6136 17.8764 23.5094C18.1238 23.3987 18.3842 23.3434 18.6576 23.3434H26.2553C26.5287 23.3434 26.7859 23.3987 27.0268 23.5094C27.2742 23.6136 27.489 23.7568 27.6713 23.9391C27.8536 24.1149 27.9968 24.3265 28.101 24.5739C28.2052 24.8147 28.2572 25.0719 28.2572 25.3453V27.152H26.2553V25.3453H18.6576V35.3453H26.2553V31.9469H22.4565V29.9449H28.2572V35.3453C28.2572 35.6188 28.2052 35.8792 28.101 36.1266C27.9968 36.3675 27.8536 36.5791 27.6713 36.7614C27.489 36.9436 27.2742 37.0869 27.0268 37.191C26.7859 37.2952 26.5287 37.3473 26.2553 37.3473H18.6576C18.3842 37.3473 18.1238 37.2952 17.8764 37.191C17.6355 37.0869 17.4239 36.9436 17.2416 36.7614C17.0593 36.5791 16.9161 36.3675 16.8119 36.1266C16.7078 35.8792 16.6557 35.6188 16.6557 35.3453V25.3453ZM40.0776 37.3473L34.8529 27.0836V37.3473H32.851V23.3434H35.0385L40.3705 33.8903L45.7123 23.3434H47.8901V37.3473H45.8979V27.0836L40.6733 37.3473H40.0776Z" fill="white"/>
<path d="M16.8119 24.5739L17.2709 24.7723L17.2728 24.7679L16.8119 24.5739ZM17.2416 23.9391L17.5887 24.2991L17.5952 24.2926L17.2416 23.9391ZM17.8764 23.5094L18.0749 23.9684L18.0806 23.9658L17.8764 23.5094ZM27.0268 23.5094L26.818 23.9637L26.8253 23.9671L26.8327 23.9702L27.0268 23.5094ZM27.6713 23.9391L27.3177 24.2927L27.3242 24.299L27.6713 23.9391ZM28.101 24.5739L27.6402 24.7679L27.6421 24.7723L28.101 24.5739ZM28.2572 27.152V27.652H28.7572V27.152H28.2572ZM26.2553 27.152H25.7553V27.652H26.2553V27.152ZM26.2553 25.3453H26.7553V24.8453H26.2553V25.3453ZM18.6576 25.3453V24.8453H18.1576V25.3453H18.6576ZM18.6576 35.3453H18.1576V35.8453H18.6576V35.3453ZM26.2553 35.3453V35.8453H26.7553V35.3453H26.2553ZM26.2553 31.9469H26.7553V31.4469H26.2553V31.9469ZM22.4565 31.9469H21.9565V32.4469H22.4565V31.9469ZM22.4565 29.9449V29.4449H21.9565V29.9449H22.4565ZM28.2572 29.9449H28.7572V29.4449H28.2572V29.9449ZM28.101 36.1266L28.5599 36.3251L28.5618 36.3206L28.101 36.1266ZM27.0268 37.191L26.8327 36.7302L26.8283 36.7321L27.0268 37.191ZM17.8764 37.191L17.6779 37.65L17.6824 37.6519L17.8764 37.191ZM17.2416 36.7614L16.8881 37.1149L17.2416 36.7614ZM16.8119 36.1266L16.3511 36.3206L16.353 36.325L16.8119 36.1266ZM16.6557 25.3453H17.1557C17.1557 25.1372 17.1949 24.9479 17.2709 24.7723L16.8119 24.5739L16.353 24.3754C16.2206 24.6816 16.1557 25.0066 16.1557 25.3453H16.6557ZM16.8119 24.5739L17.2728 24.7679C17.3522 24.5791 17.458 24.425 17.5887 24.299L17.2416 23.9391L16.8946 23.5792C16.6606 23.8048 16.48 24.0738 16.3511 24.3798L16.8119 24.5739ZM17.2416 23.9391L17.5952 24.2926C17.7321 24.1558 17.8908 24.0479 18.0748 23.9683L17.8764 23.5094L17.6779 23.0505C17.3802 23.1792 17.1158 23.3578 16.8881 23.5855L17.2416 23.9391ZM17.8764 23.5094L18.0806 23.9658C18.2631 23.8841 18.4539 23.8434 18.6576 23.8434V23.3434V22.8434C18.3145 22.8434 17.9844 22.9133 17.6722 23.053L17.8764 23.5094ZM18.6576 23.3434V23.8434H26.2553V23.3434V22.8434H18.6576V23.3434ZM26.2553 23.3434V23.8434C26.459 23.8434 26.6447 23.8841 26.818 23.9637L27.0268 23.5094L27.2355 23.0551C26.9271 22.9133 26.5985 22.8434 26.2553 22.8434V23.3434ZM27.0268 23.5094L26.8327 23.9702C27.023 24.0503 27.1831 24.158 27.3178 24.2926L27.6713 23.9391L28.0249 23.5855C27.795 23.3556 27.5253 23.1768 27.2208 23.0486L27.0268 23.5094ZM27.6713 23.9391L27.3242 24.299C27.4549 24.425 27.5607 24.5791 27.6402 24.7679L28.101 24.5739L28.5618 24.3798C28.433 24.0738 28.2523 23.8048 28.0184 23.5792L27.6713 23.9391ZM28.101 24.5739L27.6421 24.7723C27.718 24.9479 27.7572 25.1372 27.7572 25.3453H28.2572H28.7572C28.7572 25.0066 28.6923 24.6816 28.5599 24.3754L28.101 24.5739ZM28.2572 25.3453H27.7572V27.152H28.2572H28.7572V25.3453H28.2572ZM28.2572 27.152V26.652H26.2553V27.152V27.652H28.2572V27.152ZM26.2553 27.152H26.7553V25.3453H26.2553H25.7553V27.152H26.2553ZM26.2553 25.3453V24.8453H18.6576V25.3453V25.8453H26.2553V25.3453ZM18.6576 25.3453H18.1576V35.3453H18.6576H19.1576V25.3453H18.6576ZM18.6576 35.3453V35.8453H26.2553V35.3453V34.8453H18.6576V35.3453ZM26.2553 35.3453H26.7553V31.9469H26.2553H25.7553V35.3453H26.2553ZM26.2553 31.9469V31.4469H22.4565V31.9469V32.4469H26.2553V31.9469ZM22.4565 31.9469H22.9565V29.9449H22.4565H21.9565V31.9469H22.4565ZM22.4565 29.9449V30.4449H28.2572V29.9449V29.4449H22.4565V29.9449ZM28.2572 29.9449H27.7572V35.3453H28.2572H28.7572V29.9449H28.2572ZM28.2572 35.3453H27.7572C27.7572 35.5534 27.718 35.7477 27.6402 35.9326L28.101 36.1266L28.5618 36.3206C28.6923 36.0106 28.7572 35.6841 28.7572 35.3453H28.2572ZM28.101 36.1266L27.6421 35.9281C27.5625 36.1122 27.4546 36.2709 27.3178 36.4078L27.6713 36.7614L28.0249 37.1149C28.2526 36.8872 28.4312 36.6227 28.5599 36.325L28.101 36.1266ZM27.6713 36.7614L27.3178 36.4078C27.1831 36.5425 27.023 36.6501 26.8327 36.7302L27.0268 37.191L27.2208 37.6519C27.5253 37.5236 27.795 37.3448 28.0249 37.1149L27.6713 36.7614ZM27.0268 37.191L26.8283 36.7321C26.6527 36.808 26.4634 36.8473 26.2553 36.8473V37.3473V37.8473C26.5941 37.8473 26.9191 37.7824 27.2252 37.65L27.0268 37.191ZM26.2553 37.3473V36.8473H18.6576V37.3473V37.8473H26.2553V37.3473ZM18.6576 37.3473V36.8473C18.4496 36.8473 18.2552 36.808 18.0704 36.7302L17.8764 37.191L17.6824 37.6519C17.9923 37.7824 18.3188 37.8473 18.6576 37.8473V37.3473ZM17.8764 37.191L18.0748 36.7321C17.8908 36.6525 17.7321 36.5447 17.5952 36.4078L17.2416 36.7614L16.8881 37.1149C17.1158 37.3426 17.3802 37.5212 17.6779 37.65L17.8764 37.191ZM17.2416 36.7614L17.5952 36.4078C17.4583 36.2709 17.3505 36.1122 17.2709 35.9281L16.8119 36.1266L16.353 36.325C16.4817 36.6227 16.6604 36.8872 16.8881 37.1149L17.2416 36.7614ZM16.8119 36.1266L17.2728 35.9326C17.1949 35.7477 17.1557 35.5534 17.1557 35.3453H16.6557H16.1557C16.1557 35.6841 16.2206 36.0106 16.3511 36.3206L16.8119 36.1266ZM16.6557 35.3453H17.1557V25.3453H16.6557H16.1557V35.3453H16.6557ZM40.0776 37.3473L39.632 37.5741L39.771 37.8473H40.0776V37.3473ZM34.8529 27.0836L35.2985 26.8568L34.3529 27.0836H34.8529ZM34.8529 37.3473V37.8473H35.3529V37.3473H34.8529ZM32.851 37.3473H32.351V37.8473H32.851V37.3473ZM32.851 23.3434V22.8434H32.351V23.3434H32.851ZM35.0385 23.3434L35.4847 23.1178L35.346 22.8434H35.0385V23.3434ZM40.3705 33.8903L39.9243 34.1158L40.3701 34.9977L40.8166 34.1162L40.3705 33.8903ZM45.7123 23.3434V22.8434H45.4051L45.2663 23.1175L45.7123 23.3434ZM47.8901 23.3434H48.3901V22.8434H47.8901V23.3434ZM47.8901 37.3473V37.8473H48.3901V37.3473H47.8901ZM45.8979 37.3473H45.3979V37.8473H45.8979V37.3473ZM45.8979 27.0836H46.3979L45.4523 26.8568L45.8979 27.0836ZM40.6733 37.3473V37.8473H40.9798L41.1189 37.5741L40.6733 37.3473ZM40.0776 37.3473L40.5231 37.1205L35.2985 26.8568L34.8529 27.0836L34.4074 27.3104L39.632 37.5741L40.0776 37.3473ZM34.8529 27.0836H34.3529V37.3473H34.8529H35.3529V27.0836H34.8529ZM34.8529 37.3473V36.8473H32.851V37.3473V37.8473H34.8529V37.3473ZM32.851 37.3473H33.351V23.3434H32.851H32.351V37.3473H32.851ZM32.851 23.3434V23.8434H35.0385V23.3434V22.8434H32.851V23.3434ZM35.0385 23.3434L34.5923 23.569L39.9243 34.1158L40.3705 33.8903L40.8167 33.6647L35.4847 23.1178L35.0385 23.3434ZM40.3705 33.8903L40.8166 34.1162L46.1584 23.5693L45.7123 23.3434L45.2663 23.1175L39.9245 33.6643L40.3705 33.8903ZM45.7123 23.3434V23.8434H47.8901V23.3434V22.8434H45.7123V23.3434ZM47.8901 23.3434H47.3901V37.3473H47.8901H48.3901V23.3434H47.8901ZM47.8901 37.3473V36.8473H45.8979V37.3473V37.8473H47.8901V37.3473ZM45.8979 37.3473H46.3979V27.0836H45.8979H45.3979V37.3473H45.8979ZM45.8979 27.0836L45.4523 26.8568L40.2277 37.1205L40.6733 37.3473L41.1189 37.5741L46.3435 27.3104L45.8979 27.0836ZM40.6733 37.3473V36.8473H40.0776V37.3473V37.8473H40.6733V37.3473Z" fill="white"/>
</svg>
